# xmcd CD database file
# Copyright (C) 1997 Ti Kan
# 
# Track frame offsets:
#     150
#     23747
#     56142
#     70315
#     81930
#     98415
#     111285
#     135637
#     150922
#     168650
# 
# Disc length: 2429 seconds
# 
# Revision: 1
# Processed by: cddbd v1.4b41PL1 Copyright (c) Steve Scherf et al.
# Submitted via: DiscPlay 4.0.4
# 
DISCID=7b097b0a
DTITLE=Various Artist - Italian love songs
DYEAR=1900
DGENRE=
TTITLE0=Piano, Piano
TTITLE1=Solo Senza Te
TTITLE2=Un amore
TTITLE3=Fantasia
TTITLE4=Domani E Poi
TTITLE5=Credini
TTITLE6=Rita
TTITLE7=Belle Da Impazzire
TTITLE8=Nostalgia
TTITLE9=Stelle
EXTD=
EXTT0=
EXTT1=
EXTT2=
EXTT3=
EXTT4=
EXTT5=
EXTT6=
EXTT7=
EXTT8=
EXTT9=
PLAYORDER=
